<svg width="190" height="192" viewBox="0 0 190 192" fill="none" xmlns="http://www.w3.org/2000/svg">
<g opacity="0.5" filter="url(#filter0_d_288_682)">
<path d="M65.4016 66.8639C83.9199 42.1728 108.611 36 120.957 36C124.043 36 124.043 39.0864 120.957 39.0864C117.87 39.0864 102.438 45.2592 99.3519 66.8639C96.2655 88.4687 65.4016 66.8639 65.4016 66.8639ZM62.3152 122.419C74.6608 131.678 102.438 147.11 117.87 147.11C127.129 147.11 124.043 144.024 120.957 144.024C117.87 144.024 93.1791 134.765 90.0927 122.419C87.0063 110.073 62.3152 122.419 62.3152 122.419Z" fill="white"/>
<path fill-rule="evenodd" clip-rule="evenodd" d="M131.762 83.2034C135.494 72.9504 143.049 63.7776 148.021 63.7776C151.62 63.7776 149.7 68.5778 147.084 75.1161C144.745 80.9644 141.849 88.2034 141.849 94.6416C141.849 101.08 144.745 108.319 147.084 114.167C149.7 120.705 151.62 125.505 148.021 125.505C142.938 125.505 135.145 115.925 131.509 105.404C126.13 121.367 109.263 133.052 91.809 133.052C75.4696 133.052 55.8031 122.913 47.7013 113.901C47.0254 113.149 45.6611 112.566 44.2705 111.973C40.7524 110.471 37.0659 108.898 43.9298 104.324C37.4432 99.9971 40.2562 98.6826 43.3489 97.2376C44.8208 96.5498 46.3562 95.8324 46.9822 94.7465C48.1357 92.7499 49.3834 90.3303 50.7594 87.662C58.4509 72.746 70.1499 50.0586 91.809 50.0586C112.732 50.0586 127.21 65.8578 131.762 83.2034ZM73.947 83.8385C73.947 86.3954 71.8743 88.4681 69.3174 88.4681C66.7606 88.4681 64.6878 86.3954 64.6878 83.8385C64.6878 81.2817 66.7606 79.2089 69.3174 79.2089C71.8743 79.2089 73.947 81.2817 73.947 83.8385Z" fill="white"/>
<path d="M95.5551 91.4529C95.5411 91.858 95.6071 92.2618 95.7495 92.6413C95.8918 93.0208 96.1077 93.3684 96.3847 93.6643C96.6617 93.9602 96.9943 94.1986 97.3636 94.3657C97.7328 94.5327 98.1314 94.6253 98.5365 94.6381L98.6415 94.6412C99.4416 94.64 100.21 94.3281 100.785 93.7713C101.359 93.2145 101.695 92.4563 101.722 91.6566C102.342 72.9376 119.493 64.447 121.32 63.5951C119.885 61.9691 118.327 60.4555 116.66 59.0674C110.842 62.3297 96.1847 72.4099 95.5551 91.4529ZM111.043 84.777C110.882 85.5801 111.047 86.4139 111.502 87.0952C111.956 87.7764 112.662 88.2493 113.465 88.4097C114.268 88.5702 115.102 88.405 115.784 87.9507C116.465 87.4963 116.938 86.7899 117.098 85.9869C118.691 78.0209 124.184 74.9561 128.184 73.7771C127.247 71.8911 126.187 70.0683 125.012 68.3204C119.218 70.4531 112.95 75.2524 111.043 84.777Z" fill="#DEDEDE"/>
<path d="M80.1201 97.7277C80.1201 98.5463 80.4453 99.3313 81.0241 99.9101C81.6029 100.489 82.3879 100.814 83.2065 100.814C84.0251 100.814 84.8101 100.489 85.3889 99.9101C85.9677 99.3313 86.2929 98.5463 86.2929 97.7277C86.2929 70.0427 104.321 59.012 111.805 55.6262C109.651 54.3066 107.371 53.2035 105 52.333C95.2064 58.1262 80.1201 71.3267 80.1201 97.7277Z" fill="#DEDEDE"/>
</g>
<defs>
<filter id="filter0_d_288_682" x="0" y="0" width="190" height="191.11" filterUnits="userSpaceOnUse" color-interpolation-filters="sRGB">
<feFlood flood-opacity="0" result="BackgroundImageFix"/>
<feColorMatrix in="SourceAlpha" type="matrix" values="0 0 0 0 0 0 0 0 0 0 0 0 0 0 0 0 0 0 127 0" result="hardAlpha"/>
<feOffset dy="4"/>
<feGaussianBlur stdDeviation="20"/>
<feComposite in2="hardAlpha" operator="out"/>
<feColorMatrix type="matrix" values="0 0 0 0 1 0 0 0 0 1 0 0 0 0 1 0 0 0 0.7 0"/>
<feBlend mode="normal" in2="BackgroundImageFix" result="effect1_dropShadow_288_682"/>
<feBlend mode="normal" in="SourceGraphic" in2="effect1_dropShadow_288_682" result="shape"/>
</filter>
</defs>
</svg>
