<svg width="210" height="200" viewBox="0 0 210 200" fill="none" xmlns="http://www.w3.org/2000/svg">
<g opacity="0.5" filter="url(#filter0_d_288_690)">
<path d="M79.2535 36.0009C61.3597 36.0805 46.3252 41.0511 40 42.708C89.7777 38.1964 97.2003 50.8129 95.8208 64.6493C90.7971 75.0295 88.8576 79.8158 88.1231 84.0038C88.0955 83.9799 88.0696 83.9558 88.0412 83.9317C88.0038 84.3522 87.9713 84.7731 87.9439 85.1944C87.6202 87.7537 87.6913 90.2668 87.7112 93.9303C87.7751 105.711 93.323 115.489 97.5168 127.9C92.165 137.494 80.1722 138.982 66.8731 138.875C71.1965 140.037 82.6971 148.516 117.588 133.865C112.517 144.339 89.4835 152.046 88.8154 156C115.204 153.757 132.058 142.215 136.362 124.817C143.772 120.249 150.43 114.485 155.999 100.547C157.372 96.4061 163.269 96.0186 167.813 94.9607C170.044 94.4418 171.343 90.057 167.813 89.5677C163.165 88.5411 156.484 89.0855 153.87 84.3669C133.665 44.9747 103.775 35.894 79.2535 36.0009ZM53.1935 68.4129C51.4426 68.402 50.0191 68.6839 49.059 69.3169C63.6681 77.3656 69.1255 80.8479 69.2435 83.596C69.3279 88.6632 53.8009 90.0383 53.3645 92.7458C53.1985 93.7743 65.8334 100.631 67.6945 103.244C69.9486 107.274 62.6586 113.086 53.1706 119.424C55.1503 122.516 73.1663 115.694 85.3451 109.329C83.3144 99.8009 82.016 90.0951 83.4628 80.3819C74.5312 74.012 60.7826 68.4598 53.1935 68.4124V68.4129ZM138.615 77.7666C143.352 77.7666 147.245 81.6391 147.245 86.3509C147.245 91.0627 143.352 94.9352 138.615 94.9352C133.878 94.9352 129.985 91.0627 129.985 86.3509C129.985 81.6391 133.879 77.7666 138.615 77.7666ZM118.879 81.177C119.985 81.194 121.095 81.2565 122.209 81.3703L122.343 81.3841L122.475 81.412C124.544 81.853 125.386 83.4328 125.978 84.8567C126.57 86.2801 126.91 87.9131 127.082 89.6618C127.427 93.1586 127.202 97.0355 125.436 100.078C124.384 101.892 122.821 102.523 120.898 103.25C118.976 103.976 116.621 104.535 113.991 104.849C108.731 105.478 102.374 105.142 96.726 102.559L91.2391 100.05L96.9135 97.9968C99.6598 97.0034 101.669 95.8411 103.115 94.817C100.783 93.8505 97.8951 92.2648 95.2707 89.639L92.4308 86.7977L96.2595 85.5525C103.602 83.1646 111.139 81.0574 118.879 81.1775L118.879 81.177ZM138.615 82.7033C136.561 82.7033 134.948 84.3077 134.948 86.3509C134.948 87.9361 135.92 89.2531 137.315 89.7654C136.991 89.2307 136.82 88.6263 136.818 88.011C136.818 87.0648 137.218 86.1574 137.93 85.4883C138.642 84.8193 139.608 84.4434 140.615 84.4434C141.042 84.4449 141.466 84.5141 141.869 84.648C141.262 83.4838 140.047 82.7035 138.615 82.7035L138.615 82.7033ZM118.8 86.1159C113.422 86.0418 107.906 87.2376 102.278 88.8853C105.512 90.8592 108.36 91.3153 108.36 91.3153L112.423 91.9324L109.982 95.2207C109.982 95.2207 109.004 96.5059 107.171 97.9688C106.465 98.5316 105.568 99.1454 104.566 99.7652C107.573 100.262 110.668 100.274 113.398 99.9476C115.675 99.6761 117.698 99.1786 119.136 98.635C120.574 98.0914 121.354 97.239 121.138 97.6104C121.93 96.2459 122.415 92.9074 122.143 90.1431C122.007 88.7614 121.707 87.5028 121.392 86.7442C121.26 86.4261 121.154 86.3218 121.093 86.247C120.331 86.1839 119.568 86.1268 118.801 86.1164L118.8 86.1159Z" fill="url(#paint0_linear_288_690)"/>
</g>
<defs>
<filter id="filter0_d_288_690" x="0" y="0" width="210" height="200" filterUnits="userSpaceOnUse" color-interpolation-filters="sRGB">
<feFlood flood-opacity="0" result="BackgroundImageFix"/>
<feColorMatrix in="SourceAlpha" type="matrix" values="0 0 0 0 0 0 0 0 0 0 0 0 0 0 0 0 0 0 127 0" result="hardAlpha"/>
<feOffset dy="4"/>
<feGaussianBlur stdDeviation="20"/>
<feComposite in2="hardAlpha" operator="out"/>
<feColorMatrix type="matrix" values="0 0 0 0 1 0 0 0 0 1 0 0 0 0 1 0 0 0 0.7 0"/>
<feBlend mode="normal" in2="BackgroundImageFix" result="effect1_dropShadow_288_690"/>
<feBlend mode="normal" in="SourceGraphic" in2="effect1_dropShadow_288_690" result="shape"/>
</filter>
<linearGradient id="paint0_linear_288_690" x1="156.626" y1="49.8266" x2="55.0058" y2="154.533" gradientUnits="userSpaceOnUse">
<stop stop-color="#FFF0E6"/>
<stop offset="0.0001" stop-color="#EBEBEB"/>
<stop offset="0.977296" stop-color="white"/>
</linearGradient>
</defs>
</svg>
